<?xml version="1.0" encoding="utf-8"?>
<!-- Generator: Adobe Illustrator 22.0.1, SVG Export Plug-In . SVG Version: 6.00 Build 0)  -->
<svg version="1.1" id="Layer_1" xmlns="http://www.w3.org/2000/svg" xmlns:xlink="http://www.w3.org/1999/xlink" x="0px" y="0px"
	 viewBox="0 0 178.7 42" style="enable-background:new 0 0 178.7 42;" xml:space="preserve">
<style type="text/css">
	.st0{fill:#ED1D24;}
</style>
<g>
	<defs>
		<rect id="SVGID_1_" width="178.7" height="42"/>
	</defs>
	<clipPath id="SVGID_2_">
		<use xlink:href="#SVGID_1_"  style="overflow:visible;"/>
	</clipPath>
</g>
<path class="st0" d="M61.5,13.9c0,2.5-1.4,4.5-4.5,4.5h-4.3v-9H57C60.1,9.4,61.5,11.5,61.5,13.9 M25.4,28.2c0,2.6-1.7,4-4.5,4h-4.2
	v-7.9H21C23.8,24.2,25.4,25.6,25.4,28.2 M25,12.7c0,2.2-1.2,3.5-4.3,3.5h-4V9.4h4.1C23.8,9.4,25,10.6,25,12.7 M144.9,10.1
	c1.1-1.6,1.8-3.9,1.8-10.1h-33.6h-11.5v10.1v15.2c0,4.1-1.9,6.7-6.4,6.7c-4.5,0-6.4-2.7-6.4-6.7V0H72v6.6C69.8,2.5,65.4,0,59,0H35.9
	v5.5C33.7,2.1,29.2,0,22.6,0H0v9.4h4.5v22.8H0v9.3h22.8c9.5,0,15.8-4.1,15.8-12.2c0-5.1-3.1-8-7.5-9.1V20c3.3-0.9,6.2-3.8,6.2-9.3
	c0-0.4,0-0.9-0.1-1.3h3.1v17.3v14.8h12.3V26.6h3.2l5.5,8.7c3.7,5.9,6.9,6.7,11.8,6.7c1.3,0,2.6-0.3,3.7-0.6v-8.7
	c-0.4,0.1-0.9,0.1-1.1,0.1c-1.3,0-2.5-0.4-3.6-2l-4.3-6.3c3.7-2.3,5.7-6.2,5.7-11.2c0-1.4-0.2-2.7-0.5-3.9h3.5v15.9
	c0,12.1,7.3,16.7,18.6,16.7s17.9-4.6,17.9-16.7V10.1h18.3l-17.3,21.3c-1.4,2-2,3.7-2,10.1h29.8c0-6.4,0.6-8.1,2-10.1h-0.1h-16
	L144.9,10.1L144.9,10.1z M178.7,31.4h-18.9L177,10.1c1.1-1.6,1.8-3.9,1.8-10.1H149h0c0,6.2-0.7,8.4-1.8,10.1v0h0.1h16.2l-17.3,21.3
	c-1.4,2-2,3.7-2,10.1h0h34.6V31.4z"/>
</svg>
